<svg fill="none" xmlns="http://www.w3.org/2000/svg" viewBox="0 0 53 52"><g clip-path="url(#a)"><mask id="b" style="mask-type:luminance" maskUnits="userSpaceOnUse" x="0" y="0" width="53" height="52"><path d="M26.39 52c14.36 0 26-11.64 26-26s-11.64-26-26-26-26 11.64-26 26 11.64 26 26 26Z" fill="#fff"/></mask><g mask="url(#b)"><path d="M52.39 0h-52v52h52V0Z" fill="#65799E"/><path d="m43.118 9.396-4.69-2.222-8.704 6.036-5.4-3.823-1.996 1.478-4.55-3.124-5.346 3.67s-5.964 3.463-6.17 3.463c-.147 0-3.835-2.89-5.872-4.496v41.621h52V6.962L49.159 5.16l-6.041 4.237Z" fill="#234075"/><path d="M.39 22.773V52h52V28.5a51.05 51.05 0 0 1-11.229 1.25c-12.037 0-28.464-6.512-40.771-6.977Z" fill="#036"/><path d="m28.346 14.187-5.708 4.075a3.8 3.8 0 0 1-2.208.707h-6.433c-.077 0-.108-.098-.046-.142l10.356-7.393a.157.157 0 0 1 .183 0l3.856 2.753Zm2.934-.342-7.18 5.124h14.29c.079 0 .112-.102.047-.149l-6.97-4.975a.163.163 0 0 0-.189 0Z" fill="#FCBA19"/><path d="M32.673 25.538h8.087c.09 0 .163-.073.163-.163v-2.463a2.41 2.41 0 0 0-2.41-2.41H12.646a.788.788 0 0 0-.788.788v18.47c0 .435.352.788.788.788h25.869a2.41 2.41 0 0 0 2.41-2.41v-2.463a.163.163 0 0 0-.164-.163h-8.087a4.987 4.987 0 0 1 0-9.974Zm8.087 1.533h-7.873a3.44 3.44 0 0 0-2.44 1.011 3.451 3.451 0 0 0 2.44 5.892h7.873c.09 0 .163-.073.163-.164v-6.576a.164.164 0 0 0-.163-.163Zm-8.131 4.92a1.484 1.484 0 0 1-1.215-1.215 1.517 1.517 0 0 1-.019-.25 1.484 1.484 0 1 1 2.967 0c0 .901-.8 1.618-1.733 1.465Z" fill="url(#c)"/><path d="M38.514 20.502h-25.87a.788.788 0 0 0-.787.788v18.47c0 .435.352.788.788.788h25.869a2.41 2.41 0 0 0 2.41-2.41v-2.463a.163.163 0 0 0-.164-.163H39.5v2.626a.988.988 0 0 1-.987.988H13.279V21.924h25.235c.544 0 .987.443.987.988v2.626h1.259c.09 0 .163-.073.163-.163v-2.463a2.41 2.41 0 0 0-2.41-2.41Z" fill="#fff"/></g></g><defs><linearGradient id="c" x1="26.39" y1="40.548" x2="26.39" y2="20.502" gradientUnits="userSpaceOnUse"><stop stop-color="#EAEAEB"/><stop offset="1" stop-color="#fff"/></linearGradient><clipPath id="a"><path fill="#fff" transform="translate(.39)" d="M0 0h52v52H0z"/></clipPath></defs></svg>
