<svg fill="none" xmlns="http://www.w3.org/2000/svg" viewBox="0 0 159 52"><g clip-path="url(#a)"><path d="M81.773 36.776c0-2.052-.111-2.576-1.365-2.686l-.893-.082c-.221-.168-.192-.581.03-.692 1.5-.139 3.395-.22 5.98-.22 1.751 0 3.42.139 4.674.773 1.196.581 2.112 1.691 2.112 3.465 0 1.994-1.167 3.017-2.836 3.796 0 .279.222.36.531.413 1.5.279 3.728 1.663 3.728 4.628 0 3.215-2.392 5.377-7.398 5.377-.806 0-2.171-.081-3.338-.081-1.167 0-2.17.053-3.198.081-.169-.081-.222-.523-.058-.692l.502-.081c1.476-.25 1.529-.553 1.529-3.465V36.776Zm2.281 3.681c0 .774.03.832 1.447.774 2.836-.11 4.365-.942 4.365-3.547 0-2.604-2.03-3.743-4.143-3.743-.613 0-1.027.058-1.278.168-.28.082-.39.221-.39.721v5.627Zm0 6.43c0 1 .053 2.412.584 3.023.53.639 1.365.773 2.2.773 2.473 0 4.364-1.11 4.364-3.878 0-2.191-1.114-4.738-5.537-4.738-1.5 0-1.61.168-1.61.72v4.1Zm14.783-11.802c2.031-1.581 4.616-2.355 7.51-2.355 1.5 0 3.618.308 4.925.668.333.082.53.14.776.11.029.64.169 2.384.391 4.076-.14.192-.555.22-.752.052-.415-1.883-1.669-4.046-5.702-4.046-4.254 0-7.871 2.686-7.871 8.424 0 5.738 3.699 9.034 8.262 9.034 3.589 0 5.175-2.325 5.812-3.964.193-.14.613-.082.724.11-.193 1.442-.917 3.268-1.336 3.797a5.041 5.041 0 0 0-.975.279c-.612.22-2.614.639-4.394.639-2.503 0-4.895-.5-6.926-1.855-2.223-1.523-3.95-4.046-3.95-7.622 0-3.075 1.389-5.709 3.506-7.343v-.004Z" fill="#004B8D"/><path d="M129.036 38.122c0 2.912-4.341 4.83-10.66 6.362-.308.654-.612 1.88-.612 3.412 0 1.302.921 2.187 2.108 2.187 1.577 0 2.676-.77 4.606-2.225.395 0 .656.307.569.653-2.677 2.874-5.175 3.489-7.018 3.489-2.633 0-3.555-2.148-3.555-4.027 0-2.412 1.756-7.093 6.536-10.313 2.281-1.532 3.993-1.84 5.262-1.84 1.756 0 2.764 1.302 2.764 2.302Zm-6.975.725a15.09 15.09 0 0 0-3.246 4.484c2.894-.769 4.254-1.495 5.88-2.835 1.36-1.11 1.712-2.264 1.712-2.605 0-.384-.217-.88-1.008-.88-.613 0-1.756.347-3.333 1.841l-.005-.005Z" fill="#FDB913"/><path d="M132.137 37.382c0-2.936-.058-3.407-1.698-3.547l-.694-.057c-.169-.11-.111-.61.058-.692 1.389.053 2.334.081 3.506.081 1.172 0 2.06-.029 3.449-.081.169.081.222.581.058.692l-.695.057c-1.64.14-1.698.61-1.698 3.547v9.865c0 2.937.053 3.326 1.698 3.518l.695.082c.168.11.111.61-.058.692a85.255 85.255 0 0 0-3.449-.082 85.79 85.79 0 0 0-3.506.082c-.169-.082-.222-.524-.058-.692l.694-.082c1.64-.192 1.698-.581 1.698-3.518v-9.865Zm9.401-.606c0-1.941-.14-2.523-1.308-2.686l-.612-.082c-.222-.139-.251-.581.029-.692 2.363-.139 4.616-.22 6.979-.22 2.364 0 4.312.168 6.121.83 3.752 1.36 5.648 4.518 5.648 8.175 0 3.657-1.698 6.54-4.867 8.255-1.809.971-4.09 1.332-6.231 1.332-1.78 0-3.56-.221-4.534-.221-1.168 0-2.171.028-3.478.081-.169-.081-.222-.523-.058-.692l.642-.081c1.611-.221 1.669-.553 1.669-3.465V36.776Zm2.281 9.89c0 1.47.082 2.355.555 3.023.612.86 1.669 1.134 3.419 1.134 5.398 0 7.814-3.518 7.814-8.674 0-3.047-1.476-8.203-8.759-8.203-1.64 0-2.532.22-2.754.39-.222.167-.28.86-.28 2.104v10.226h.005Z" fill="#004B8D"/><path d="M70.64.029h-.544v51.346h.545V.03Z" fill="#FDB913"/><path d="M8.74 34.426c0-.937-.068-1.187-.705-1.235l-.444-.028c-.072-.058-.053-.313.015-.318.762-.067 1.721-.1 3.033-.1.888 0 1.737.062 2.373.355.608.264 1.076.774 1.076 1.581 0 .913-.593 1.384-1.442 1.74 0 .125.11.163.27.187.762.13 1.89.76 1.89 2.114 0 1.471-1.215 2.46-3.757 2.46-.41 0-1.1-.038-1.693-.038s-1.1.025-1.625.039c-.087-.039-.11-.24-.029-.317l.256-.039c.747-.115.776-.254.776-1.585v-4.816h.005Zm1.157 1.687c0 .356.014.38.733.356 1.442-.053 2.218-.433 2.218-1.625 0-1.191-1.032-1.71-2.103-1.71-.308 0-.52.029-.65.077-.14.038-.198.1-.198.331v2.571Zm0 2.941c0 .457.029 1.1.294 1.384.27.293.694.356 1.114.356 1.254 0 2.219-.51 2.219-1.774 0-1.004-.565-2.167-2.812-2.167-.762 0-.82.077-.82.332v1.874l.005-.005Zm14.73-3.378c0-1.149-.024-1.331-.738-1.384l-.3-.024c-.072-.043-.047-.24.025-.27.603.02 1.013.034 1.52.034.506 0 .892-.01 1.494-.033.073.033.097.226.025.269l-.304.024c-.714.053-.733.235-.733 1.384v3.854c0 1.148.024 1.302.733 1.374l.304.034c.072.043.048.235-.024.269-.603-.02-1.013-.034-1.496-.034-.482 0-.916.01-1.519.034-.072-.034-.097-.207-.024-.27l.299-.033c.714-.077.738-.23.738-1.374v-3.854Zm6.69 3.873c0 1.139.024 1.297.68 1.355l.361.034c.068.043.044.235-.024.269-.646-.02-1.027-.034-1.48-.034-.454 0-.85.01-1.573.034-.067-.034-.091-.216 0-.27l.405-.033c.647-.058.7-.216.7-1.355v-4.84c0-.336 0-.345-.338-.345h-.622c-.487 0-1.104.02-1.39.269-.27.235-.38.476-.506.745-.091.067-.25.01-.294-.077.183-.485.352-1.177.43-1.615.033-.019.183-.033.216 0 .068.346.44.337.96.337h4.578c.612 0 .713-.024.882-.303.058-.02.184-.01.203.034-.126.442-.203 1.321-.169 1.643-.043.087-.236.087-.294.024-.034-.269-.111-.673-.285-.788-.26-.187-.69-.27-1.312-.27h-.8c-.338 0-.328.01-.328.37v4.816Zm4.843-3.873c0-1.149-.025-1.331-.734-1.384l-.304-.024c-.072-.043-.048-.24.024-.27.603.02 1.013.034 1.52.034.506 0 .892-.01 1.495-.033.072.033.096.226.024.269l-.304.024c-.714.053-.733.235-.733 1.384v3.854c0 1.148.024 1.302.733 1.374l.304.034c.072.043.048.235-.024.269-.603-.02-1.013-.034-1.495-.034-.507 0-.917.01-1.52.034-.072-.034-.096-.207-.024-.27l.304-.033c.714-.077.733-.23.733-1.374v-3.854Zm5.406 5.641c-1.076 0-1.756-.278-2.002-.398-.154-.24-.323-1.005-.347-1.514.063-.077.256-.096.309-.034.193.553.718 1.615 2.204 1.615 1.076 0 1.601-.596 1.601-1.245 0-.475-.115-1.009-1.051-1.514l-1.22-.672c-.642-.356-1.385-.976-1.385-1.86 0-1.028.95-1.864 2.615-1.864.395 0 .858.067 1.19.139.17.043.348.062.45.062.115.26.231.865.231 1.322-.053.062-.256.096-.318.034-.17-.52-.512-1.221-1.742-1.221s-1.524.701-1.524 1.201c0 .63.613 1.081 1.09 1.331l1.028.543c.81.423 1.601 1.048 1.601 2.076 0 1.192-1.066 2.004-2.73 2.004v-.005Zm6.454-3.637c-.56 0-.584.019-.584.346v1.528c0 1.139.058 1.288.714 1.355l.337.034c.068.043.049.235-.024.269-.632-.02-1.027-.034-1.485-.034-.502 0-.902.024-1.356.034-.072-.034-.091-.207-.024-.27l.198-.033c.656-.11.68-.216.68-1.355v-3.897c0-1.14-.082-1.322-.69-1.365l-.303-.024c-.073-.043-.049-.24.024-.27.574.01.97.034 1.47.034.454 0 .855-.01 1.356-.033.068.033.092.226.024.269l-.222.024c-.68.062-.704.226-.704 1.365V36.9c0 .337.024.346.584.346h3.342c.56 0 .584-.01.584-.346v-1.244c0-1.14-.024-1.298-.714-1.365l-.222-.024c-.067-.043-.048-.24.024-.27a29.059 29.059 0 0 0 2.793.001c.072.033.092.226.024.269l-.246.024c-.68.062-.7.226-.7 1.365v3.897c0 1.139.025 1.278.7 1.355l.28.034c.067.043.048.235-.024.269a28.718 28.718 0 0 0-2.826 0c-.073-.034-.092-.207-.025-.27l.222-.033c.714-.11.714-.216.714-1.355v-1.528c0-.327-.024-.346-.584-.346h-3.342.005ZM2.05 43.586c.959-.745 2.184-1.11 3.554-1.11.709 0 1.712.144 2.33.312.159.038.25.067.366.053.015.303.077 1.124.183 1.922-.067.091-.265.106-.357.024-.197-.889-.79-1.908-2.7-1.908-2.017 0-3.724 1.269-3.724 3.974 0 2.706 1.75 4.263 3.912 4.263 1.697 0 2.45-1.096 2.749-1.87.091-.067.29-.038.342.053-.091.683-.434 1.543-.632 1.793a2.437 2.437 0 0 0-.463.13c-.289.105-1.24.297-2.078.297-1.187 0-2.316-.235-3.28-.874C1.2 49.929.38 48.737.38 47.05c0-1.45.661-2.69 1.66-3.464h.01Zm7.2 4.228c0-2.162 1.713-3.82 4.062-3.82 2.633 0 3.96 1.807 3.96 3.715 0 2.186-1.756 3.777-3.96 3.777-2.533 0-4.062-1.72-4.062-3.672Zm6.878.226c0-1.787-.834-3.714-3.014-3.714-1.187 0-2.725.768-2.725 3.138 0 1.6.82 3.68 3.067 3.68 1.37 0 2.672-.975 2.672-3.108v.004Zm14.012-1.158c0-.673-.024-1.917-.222-2.24-.082-.129-.29-.206-.574-.225l-.29-.02c-.067-.076-.048-.215.025-.259.439.02.863.034 1.312.034.482 0 .796-.01 1.21-.034.092.053.082.193.024.26l-.274.019c-.29.02-.507.12-.575.26-.163.355-.163 1.6-.163 2.205v1.226c0 .941-.16 1.936-.806 2.585-.497.51-1.346.788-2.2.788-.795 0-1.591-.14-2.155-.596-.613-.476-.898-1.264-.898-2.552v-2.556c0-1.125-.024-1.312-.69-1.365l-.289-.02c-.067-.042-.048-.225.024-.259.58.02.97.034 1.428.034.458 0 .854-.01 1.418-.034.068.034.092.217.024.26l-.275.02c-.67.052-.69.24-.69 1.364v2.34c0 1.74.58 2.888 2.34 2.888 1.669 0 2.305-1.235 2.305-2.878v-1.245h-.01Zm13.39-1.35c0-.807-.054-1.019-.623-1.062l-.41-.039c-.048-.043-.072-.26.014-.269.69-.053 1.553-.086 2.735-.086.8 0 1.568.053 2.137.307.55.231.97.668.97 1.37 0 .788-.536 1.192-1.298 1.5 0 .11.101.143.241.163.69.11 1.708.658 1.708 1.826 0 1.268-1.095 2.119-3.386 2.119-.372 0-.994-.034-1.53-.034-.535 0-.993.024-1.466.034-.077-.034-.1-.207-.024-.274l.232-.034c.675-.1.7-.22.7-1.364v-4.157Zm1.041 1.451c0 .308.014.327.66.308 1.298-.044 1.998-.37 1.998-1.399 0-1.028-.931-1.475-1.896-1.475-.28 0-.473.024-.584.067-.125.034-.178.087-.178.284v2.22-.005Zm0 2.537c0 .394.024.952.265 1.192.241.25.623.308 1.008.308 1.134 0 1.997-.438 1.997-1.533 0-.865-.511-1.87-2.532-1.87-.685 0-.738.068-.738.284v1.62Zm-21.787-8.582-.303-.024a1.333 1.333 0 0 1-.165-.024c-.443-.077-.617-.471-.824-.832l-1.042-1.811c-.178-.303-.372-.707-.786-.764 1.07-.13 2.035-.74 2.035-1.798 0-1.22-1.21-1.763-2.436-1.763-.733 0-1.403.019-2.15.019-.41 0-.903-.02-1.313-.02-.226 0-.231.049-.231.174 0 .187.082.134.323.149.873.048.84.211.84.951v4.743c0 .678.057.88-.657.947 0 0-.11.01-.173.02l-.304.028c-.073.063-.049.24.024.27.159-.006.448-.02.448-.02.396-.01.791-.043 1.187-.043.395 0 .781.029 1.172.043.14 0 .285.01.449.014.072-.033.096-.206.024-.269l-.304-.029c-.063-.01-.169-.014-.169-.014-.723-.048-.68-.25-.68-.947v-1.787c0-.106-.015-.385.063-.467.062-.067.178-.057.284-.057.98 0 .965.096 1.428.903l1.264 2.264c.1.173.178.394.439.394h1.094c.14 0 .285.01.444.014.072-.033.096-.206.024-.269l-.005.005Zm-4.398-3.556c-.217 0-.656.082-.656-.207V35.1c0-.812.024-.927 1.003-.927 1.148 0 1.852.581 1.852 1.648 0 .466-.169.894-.593 1.182-.487.337-1.018.385-1.611.385l.005-.005Zm.236 8.433c0-1.134-.024-1.307-.777-1.364l-.299-.02c-.072-.043-.048-.24.024-.269a33.856 33.856 0 0 0 3.024 0c.073.034.097.226.025.27l-.29.019c-.704.053-.728.225-.728 1.364v3.768c0 .682.034.966.25 1.168.131.12.358.25 1.303.25 1.018 0 1.269-.044 1.457-.14.24-.13.55-.519.79-1.072.073-.052.3-.01.3.063 0 .12-.333 1.22-.502 1.514a92.486 92.486 0 0 0-2.976-.034h-1.1c-.501 0-.882.01-1.553.034-.072-.034-.096-.207-.024-.27l.357-.033c.695-.063.719-.216.719-1.35v-3.898Zm32.021.02c0-1.149-.024-1.331-.713-1.384l-.295-.02c-.072-.043-.048-.24.025-.269a33.296 33.296 0 0 0 2.937 0c.072.034.091.226.024.27l-.294.019c-.695.053-.714.24-.714 1.384v3.854c0 1.148.024 1.297.714 1.374l.294.034c.072.043.048.235-.024.269a32.932 32.932 0 0 0-2.938 0c-.072-.034-.091-.207-.024-.27l.295-.033c.69-.077.713-.226.713-1.374v-3.854Zm-9.376 5.228-.174-.015c-.125-.01-.236-.028-.323-.124-.154-.159-.14-.62-.14-.803v-4.743c0-.207-.053-.654.102-.817.077-.086.236-.1.376-.106.087-.004.087-.004.164-.01l.299-.023c.072-.043.048-.24-.024-.27-.16.005-.309 0-.449.01h-1.283c-.14 0-.265 0-.342.15l-2.614 5.42-2.306-5.238c-.077-.183-.092-.332-.328-.332H32.89c-.14 0-.294 0-.453-.01-.073.034-.097.227-.024.27l.303.024c.063 0 .174.014.174.014.502.034.53.144.487.668l-.39 5.09c-.034.509-.063.778-.599.83 0 0-.115.015-.173.02l-.304.033c-.072.068-.048.24.024.274l.444-.014c.27-.014.55-.039.825-.039.299 0 .598.03.897.039.14 0 .284.01.448.014.073-.033.097-.206.024-.269l-.303-.034a4.747 4.747 0 0 1-.17-.014c-.776-.053-.757-.596-.708-1.264l.366-4.733h.087l2.498 5.824c.025.082.063.216.189.216.115 0 .154-.125.188-.206l2.816-5.974h.087v5.205c0 .207.024.63-.188.793-.11.082-.477.134-.477.134-.049.01-.102.015-.164.024l-.304.034c-.072.063-.048.236.024.27l.439-.015c.41-.01.825-.044 1.24-.044.298 0 .882.03.882.03.14 0 .3.019.458.023.073-.033.097-.206.024-.269l-.303-.034.014-.01Zm19.597.029-.039-.034c-.058-.005-.115-.014-.164-.02-.468-.105-.65-.667-.824-1.07l-2.417-5.705c-.024-.067-.072-.216-.169-.216-.13 0-.168.159-.202.25l-2.31 5.69c-.083.216-.3.74-.454.898-.12.125-.275.144-.439.163 0 0-.13.015-.193.02l-.284.029c-.073.062-.049.235.024.269.159-.005.448-.02.448-.02.319 0 .632-.043.95-.043.266 0 .531.029.796.039 0 0 .285.01.449.014.072-.034.096-.207.024-.269l-.304-.034-.164-.014c-.28-.029-.627-.082-.627-.385 0-.206.096-.442.169-.624l.357-.85c.178-.41.106-.457.588-.457h1.63c.574 0 .492 0 .743.581l.381.865c.058.15.17.399.17.558 0 .283-.314.302-.604.326 0 0-.096.01-.183.015l-.29.019c-.072.062-.048.235.025.27.159-.006.448-.02.448-.02.343-.015.685-.039 1.013-.039.42 0 .84.03 1.259.039.135 0 .02.01.183.014.073-.033.097-.206.024-.269l-.014.01Zm-3.169-2.682h-1.413c-.048 0-.444.048-.444-.067 0-.034.024-.1.039-.135l.849-2.09c.024-.058.11-.346.207-.346.072 0 .169.298.198.346l.834 1.951s.087.207.087.255c0 .125-.285.091-.357.091v-.005Z" fill="#004B8D"/><path d="M53.33 18.035C50.9 7.698 41.59 0 30.478 0 19.364 0 9.741 7.958 7.508 18.559l4.958-2.812 2.73 1.908s1.597-.72 1.934-.932l1.978 2.076s4.288 3.388 4.413 3.388c.126 0 3.787-2.114 3.787-2.114l3.28-2.245 2.86 2.076 2.146.423 2.185 1.48s5.296-3.513 6.14-3.935c0 0 2.31.845 2.522.802.213-.043 3.825-2.835 3.825-2.835l3.058 2.205.005-.01Z" fill="url(#b)"/><path d="m9.067 13.796.03-.067-.03.068Z" fill="url(#c)"/><path d="M9.318 13.254s.01-.024.02-.039c-.006.01-.01.024-.02.039Z" fill="url(#d)"/><path d="M9.096 13.73c.072-.16.15-.318.222-.476-.077.158-.15.317-.222.475Z" fill="url(#e)"/><path d="M30.704 11.413c.227 0 .463.005.685.02l.835-11.37a23.363 23.363 0 0 0-2.88-.034l.555 11.413c.265-.02.535-.029.805-.029Z" fill="url(#f)"/><path d="M26.812 12.062 23.286 1.12a23.38 23.38 0 0 0-2.677 1.042l4.847 10.457c.434-.211.893-.399 1.356-.553v-.004Z" fill="url(#g)"/><path d="m22.92 14.287-7.438-8.89a24.65 24.65 0 0 0-2.103 1.97l8.48 7.943c.327-.36.689-.706 1.056-1.023h.004Z" fill="url(#h)"/><path d="M20.16 17.694 9.863 12.196c-.39.697-.955 1.894-1.22 2.6l10.924 4.22c.174-.452.372-.9.593-1.322Z" fill="url(#i)"/><path d="m35.855 12.576 5.017-10.164a23.197 23.197 0 0 0-2.663-1.115L34.461 12.01c.473.159.95.35 1.394.562v.005Z" fill="url(#j)"/><path d="M39.463 15.229 47.9 7.718a23.449 23.449 0 0 0-2.04-1.995l-7.462 8.482c.376.317.733.663 1.066 1.024Z" fill="url(#k)"/><path d="m41.87 19.087 10.626-3.806a23.657 23.657 0 0 0-1.148-2.6l-10.08 5.066c.226.432.428.874.602 1.335v.005Z" fill="url(#l)"/><path d="m27.309 20.063 3.28-2.244 2.86 2.076 2.146.422 2.185 1.48s2.383-1.58 4.206-2.748a11.745 11.745 0 0 0-1.201-2.336L48.7 10.61l-8.417 5.407a12.181 12.181 0 0 0-2.682-2.557l4.964-8.477L36.892 13a12.108 12.108 0 0 0-3.458-1.394l1.423-9.755-2.257 9.597a12.149 12.149 0 0 0-3.921.02l-2.263-9.617 1.423 9.789a12.14 12.14 0 0 0-3.424 1.413l-5.711-8.069 4.997 8.54a12.126 12.126 0 0 0-2.634 2.547l-8.498-5.46 7.997 6.17a12.053 12.053 0 0 0-1.153 2.264c.989.779 3.998 3.143 4.1 3.143.125 0 3.786-2.114 3.786-2.114l.01-.01Z" fill="url(#m)"/><path d="m53.287 17.876-3.02-2.177s-3.617 2.792-3.825 2.836c-.207.043-2.522-.803-2.522-.803-.844.423-6.14 3.936-6.14 3.936l-2.185-1.48-2.146-.423-2.86-2.076-3.28 2.244s-3.661 2.12-3.787 2.12c-.125 0-4.413-3.389-4.413-3.389l-1.978-2.076c-.337.212-1.934.933-1.934.933l-2.73-1.908-4.924 2.792a23.41 23.41 0 0 0-.53 4.969c0 1.494.144 2.955.41 4.373 2.059-.375 5.821-.904 8.932-.514 4.543.572 7.38 1.335 12.174 2.412 4.794 1.081 8.325 2.095 13.495 1.523 4.843-.533 8.359-1.513 11.58-3.825.223-1.293.339-2.614.339-3.97 0-1.897-.227-3.738-.656-5.502v.005Z" fill="#004B8D"/></g><defs><radialGradient id="b" cx="0" cy="0" r="1" gradientUnits="userSpaceOnUse" gradientTransform="matrix(22.9104 0 0 22.826 30.42 22.115)"><stop stop-color="#fff"/><stop offset=".13" stop-color="#FFFDFB"/><stop offset=".24" stop-color="#FFFAF0"/><stop offset=".34" stop-color="#FFF3DE"/><stop offset=".45" stop-color="#FFEBC5"/><stop offset=".55" stop-color="#FFE0A5"/><stop offset=".6" stop-color="#FFD990"/><stop offset=".62" stop-color="#FED580"/><stop offset=".66" stop-color="#FECC5F"/><stop offset=".71" stop-color="#FDC543"/><stop offset=".77" stop-color="#FDBF2D"/><stop offset=".83" stop-color="#FDBB1E"/><stop offset=".9" stop-color="#FDB915"/><stop offset="1" stop-color="#FDB913"/></radialGradient><radialGradient id="c" cx="0" cy="0" r="1" gradientUnits="userSpaceOnUse" gradientTransform="matrix(33.7432 0 0 33.4075 30.089 23.527)"><stop offset=".53" stop-color="#fff"/><stop offset=".6" stop-color="#FFF7E8"/><stop offset=".74" stop-color="#FFE3AF"/><stop offset=".77" stop-color="#FFDFA4"/><stop offset=".8" stop-color="#FFD991"/><stop offset=".87" stop-color="#FFCA61"/><stop offset=".88" stop-color="#FFC85A"/><stop offset=".91" stop-color="#FEC44B"/><stop offset=".97" stop-color="#FEBF32"/><stop offset="1" stop-color="#FEBD2A"/></radialGradient><radialGradient id="d" cx="0" cy="0" r="1" gradientUnits="userSpaceOnUse" gradientTransform="matrix(34.9657 0 0 34.6186 31.062 23.427)"><stop offset=".53" stop-color="#fff"/><stop offset=".6" stop-color="#FFF7E8"/><stop offset=".74" stop-color="#FFE3AF"/><stop offset=".77" stop-color="#FFDFA4"/><stop offset=".8" stop-color="#FFD991"/><stop offset=".87" stop-color="#FFCA61"/><stop offset=".88" stop-color="#FFC85A"/><stop offset=".91" stop-color="#FEC44B"/><stop offset=".97" stop-color="#FEBF32"/><stop offset="1" stop-color="#FEBD2A"/></radialGradient><radialGradient id="e" cx="0" cy="0" r="1" gradientUnits="userSpaceOnUse" gradientTransform="matrix(14.34273 -32.09512 35.35648 15.80017 31.32 24.482)"><stop offset=".53" stop-color="#fff"/><stop offset=".6" stop-color="#FFF7E8"/><stop offset=".74" stop-color="#FFE3AF"/><stop offset=".77" stop-color="#FFDFA4"/><stop offset=".8" stop-color="#FFD991"/><stop offset=".87" stop-color="#FFCA61"/><stop offset=".88" stop-color="#FFC85A"/><stop offset=".91" stop-color="#FEC44B"/><stop offset=".97" stop-color="#FEBF32"/><stop offset="1" stop-color="#FEBD2A"/></radialGradient><radialGradient id="f" cx="0" cy="0" r="1" gradientUnits="userSpaceOnUse" gradientTransform="matrix(21.362 0 0 23.3882 30.472 23.374)"><stop offset=".53" stop-color="#fff"/><stop offset=".6" stop-color="#FFF7E8"/><stop offset=".74" stop-color="#FFE3AF"/><stop offset=".77" stop-color="#FFDFA4"/><stop offset=".8" stop-color="#FFD991"/><stop offset=".87" stop-color="#FFCA61"/><stop offset=".88" stop-color="#FFC85A"/><stop offset=".91" stop-color="#FEC44B"/><stop offset=".97" stop-color="#FEBF32"/><stop offset="1" stop-color="#FEBD2A"/></radialGradient><radialGradient id="g" cx="0" cy="0" r="1" gradientUnits="userSpaceOnUse" gradientTransform="matrix(19.83496 -7.98446 8.75084 21.7388 30.483 23.378)"><stop offset=".53" stop-color="#fff"/><stop offset=".6" stop-color="#FFF7E8"/><stop offset=".74" stop-color="#FFE3AF"/><stop offset=".77" stop-color="#FFDFA4"/><stop offset=".8" stop-color="#FFD991"/><stop offset=".87" stop-color="#FFCA61"/><stop offset=".88" stop-color="#FFC85A"/><stop offset=".91" stop-color="#FEC44B"/><stop offset=".97" stop-color="#FEBF32"/><stop offset="1" stop-color="#FEBD2A"/></radialGradient><radialGradient id="h" cx="0" cy="0" r="1" gradientUnits="userSpaceOnUse" gradientTransform="rotate(-43.894 44.355 -25.869) scale(21.3591 23.4684)"><stop offset=".53" stop-color="#fff"/><stop offset=".6" stop-color="#FFF7E8"/><stop offset=".74" stop-color="#FFE3AF"/><stop offset=".77" stop-color="#FFDFA4"/><stop offset=".8" stop-color="#FFD991"/><stop offset=".87" stop-color="#FFCA61"/><stop offset=".88" stop-color="#FFC85A"/><stop offset=".91" stop-color="#FEC44B"/><stop offset=".97" stop-color="#FEBF32"/><stop offset="1" stop-color="#FEBD2A"/></radialGradient><radialGradient id="i" cx="0" cy="0" r="1" gradientUnits="userSpaceOnUse" gradientTransform="matrix(23.494 0 0 23.4075 30.487 23.374)"><stop offset=".53" stop-color="#fff"/><stop offset=".6" stop-color="#FFF7E8"/><stop offset=".74" stop-color="#FFE3AF"/><stop offset=".77" stop-color="#FFDFA4"/><stop offset=".8" stop-color="#FFD991"/><stop offset=".87" stop-color="#FFCA61"/><stop offset=".88" stop-color="#FFC85A"/><stop offset=".91" stop-color="#FEC44B"/><stop offset=".97" stop-color="#FEBF32"/><stop offset="1" stop-color="#FEBD2A"/></radialGradient><radialGradient id="j" cx="0" cy="0" r="1" gradientUnits="userSpaceOnUse" gradientTransform="rotate(21.927 -44.923 89.635) scale(21.3642 23.4147)"><stop offset=".53" stop-color="#fff"/><stop offset=".6" stop-color="#FFF7E8"/><stop offset=".74" stop-color="#FFE3AF"/><stop offset=".77" stop-color="#FFDFA4"/><stop offset=".8" stop-color="#FFD991"/><stop offset=".87" stop-color="#FFCA61"/><stop offset=".88" stop-color="#FFC85A"/><stop offset=".91" stop-color="#FEC44B"/><stop offset=".97" stop-color="#FEBF32"/><stop offset="1" stop-color="#FEBD2A"/></radialGradient><radialGradient id="k" cx="0" cy="0" r="1" gradientUnits="userSpaceOnUse" gradientTransform="matrix(15.34136 14.76023 -16.2178 16.85633 29.934 22.851)"><stop offset=".53" stop-color="#fff"/><stop offset=".6" stop-color="#FFF7E8"/><stop offset=".74" stop-color="#FFE3AF"/><stop offset=".77" stop-color="#FFDFA4"/><stop offset=".8" stop-color="#FFD991"/><stop offset=".87" stop-color="#FFCA61"/><stop offset=".88" stop-color="#FFC85A"/><stop offset=".91" stop-color="#FEC44B"/><stop offset=".97" stop-color="#FEBF32"/><stop offset="1" stop-color="#FEBD2A"/></radialGradient><radialGradient id="l" cx="0" cy="0" r="1" gradientUnits="userSpaceOnUse" gradientTransform="rotate(65.921 -2.078 34.106) scale(21.2307 23.3881)"><stop offset=".53" stop-color="#fff"/><stop offset=".6" stop-color="#FFF7E8"/><stop offset=".74" stop-color="#FFE3AF"/><stop offset=".77" stop-color="#FFDFA4"/><stop offset=".8" stop-color="#FFD991"/><stop offset=".87" stop-color="#FFCA61"/><stop offset=".88" stop-color="#FFC85A"/><stop offset=".91" stop-color="#FEC44B"/><stop offset=".97" stop-color="#FEBF32"/><stop offset="1" stop-color="#FEBD2A"/></radialGradient><radialGradient id="m" cx="0" cy="0" r="1" gradientUnits="userSpaceOnUse" gradientTransform="matrix(23.4796 0 0 23.393 30.439 23.383)"><stop offset=".72" stop-color="#fff"/><stop offset=".81" stop-color="#FFF8EC"/><stop offset=".99" stop-color="#FFE7BC"/><stop offset="1" stop-color="#FFE6B9"/></radialGradient><clipPath id="a"><path fill="#fff" transform="translate(.39)" d="M0 0h158v52H0z"/></clipPath></defs></svg>
