<svg width="159" height="52" viewBox="0 0 159 52" fill="none" xmlns="http://www.w3.org/2000/svg">
<rect width="159" height="52" fill="#1E1E1E"/>
<g id="Login">
<rect width="2382.39" height="811" transform="translate(-1139 -363)" fill="#C5C5C5"/>
<g id="Step 1 - Inner">
<rect width="1140" height="811" transform="translate(-227.61 -363)" fill="#F2F2F2"/>
<g id="Frame 1">
<g id="builder">
<rect width="356" height="330" transform="translate(-23.61 -24)" fill="white"/>
<g id="row">
<g id="input group">
<g id="label + select">
<g id="Program" clip-path="url(#clip0_606_29)">
<g id="Group">
<path id="Vector" d="M81.7727 36.7763C81.7727 34.7243 81.6618 34.2005 80.4077 34.09L79.5154 34.0083C79.2936 33.8401 79.3225 33.4269 79.5444 33.3163C81.0444 33.177 82.9399 33.0953 85.5252 33.0953C87.276 33.0953 88.9449 33.2346 90.1989 33.869C91.3951 34.4504 92.3115 35.5605 92.3115 37.3337C92.3115 39.328 91.1443 40.3515 89.4754 41.13C89.4754 41.4087 89.6973 41.4904 90.006 41.5433C91.506 41.822 93.7344 43.206 93.7344 46.171C93.7344 49.3858 91.342 51.5483 86.3355 51.5483C85.53 51.5483 84.165 51.4666 82.9978 51.4666C81.8306 51.4666 80.8274 51.5195 79.8 51.5483C79.6312 51.4666 79.5781 51.0245 79.7421 50.8563L80.2437 50.7746C81.7197 50.5247 81.7727 50.222 81.7727 47.3099V36.7811V36.7763ZM84.0541 40.4573C84.0541 41.2309 84.0831 41.2886 85.5011 41.2309C88.3372 41.1204 89.8661 40.2891 89.8661 37.6845C89.8661 35.0799 87.8355 33.941 85.723 33.941C85.1104 33.941 84.6956 33.9987 84.4448 34.1092C84.165 34.1909 84.0541 34.3303 84.0541 34.8301V40.4573ZM84.0541 46.887C84.0541 47.8865 84.1072 49.2993 84.6377 49.9096C85.1683 50.5487 86.0027 50.6833 86.8371 50.6833C89.3114 50.6833 91.2022 49.5732 91.2022 46.8053C91.2022 44.614 90.088 42.0671 85.6651 42.0671C84.165 42.0671 84.0541 42.2353 84.0541 42.7879V46.887Z" fill="#004B8D"/>
<path id="Vector_2" d="M98.8374 35.0847C100.868 33.5037 103.453 32.7301 106.347 32.7301C107.847 32.7301 109.965 33.0376 111.272 33.398C111.605 33.4797 111.802 33.5374 112.048 33.5086C112.077 34.1477 112.217 35.8921 112.439 37.5836C112.299 37.7758 111.884 37.8046 111.687 37.6364C111.272 35.7527 110.018 33.5902 105.985 33.5902C101.731 33.5902 98.1139 36.2765 98.1139 42.0142C98.1139 47.752 101.813 51.0485 106.376 51.0485C109.965 51.0485 111.551 48.7227 112.188 47.084C112.381 46.9446 112.801 47.0023 112.912 47.1945C112.719 48.6362 111.995 50.4623 111.576 50.9909C111.243 51.0437 110.905 51.1542 110.601 51.2696C109.989 51.4906 107.987 51.9087 106.207 51.9087C103.704 51.9087 101.312 51.4089 99.2811 50.0538C97.0576 48.5305 95.3309 46.0076 95.3309 42.4323C95.3309 39.3568 96.72 36.7234 98.8374 35.0895V35.0847Z" fill="#004B8D"/>
<path id="Vector_3" d="M129.036 38.1218C129.036 41.0339 124.695 42.9513 118.376 44.4842C118.068 45.1378 117.764 46.3632 117.764 47.8961C117.764 49.1984 118.685 50.0826 119.872 50.0826C121.449 50.0826 122.548 49.3137 124.478 47.8577C124.873 47.8577 125.134 48.1652 125.047 48.5112C122.37 51.3849 119.872 52 118.029 52C115.396 52 114.474 49.852 114.474 47.973C114.474 45.5607 116.23 40.8801 121.01 37.6605C123.291 36.1275 125.003 35.82 126.272 35.82C128.028 35.82 129.036 37.1223 129.036 38.1218ZM122.061 38.8474C120.349 40.4573 119.341 42.2209 118.815 43.3309C121.709 42.5621 123.069 41.8364 124.695 40.4957C126.055 39.3856 126.407 38.2323 126.407 37.8911C126.407 37.5067 126.19 37.0117 125.399 37.0117C124.786 37.0117 123.643 37.3577 122.066 38.8522L122.061 38.8474Z" fill="#FDB913"/>
<path id="Vector_4" d="M132.137 37.3818C132.137 34.4456 132.079 33.9747 130.439 33.8353L129.745 33.7777C129.576 33.6671 129.634 33.1674 129.803 33.0857C131.192 33.1385 132.137 33.1674 133.309 33.1674C134.481 33.1674 135.369 33.1385 136.758 33.0857C136.927 33.1674 136.98 33.6671 136.816 33.7777L136.121 33.8353C134.481 33.9747 134.423 34.4456 134.423 37.3818V47.2474C134.423 50.1835 134.476 50.5728 136.121 50.765L136.816 50.8467C136.984 50.9572 136.927 51.457 136.758 51.5387C135.369 51.4858 134.423 51.457 133.309 51.457C132.142 51.457 131.197 51.4858 129.803 51.5387C129.634 51.457 129.581 51.0149 129.745 50.8467L130.439 50.765C132.079 50.5728 132.137 50.1835 132.137 47.2474V37.3818Z" fill="#004B8D"/>
<path id="Vector_5" d="M141.538 36.7763C141.538 34.8349 141.398 34.2534 140.23 34.09L139.618 34.0083C139.396 33.869 139.367 33.4269 139.647 33.3163C142.01 33.177 144.263 33.0953 146.626 33.0953C148.99 33.0953 150.938 33.2635 152.747 33.9266C156.499 35.2866 158.395 38.4438 158.395 42.1007C158.395 45.7577 156.697 48.641 153.528 50.3565C151.719 51.3272 149.438 51.6876 147.297 51.6876C145.517 51.6876 143.737 51.4666 142.763 51.4666C141.595 51.4666 140.592 51.4954 139.285 51.5483C139.116 51.4666 139.063 51.0245 139.227 50.8563L139.869 50.7746C141.48 50.5536 141.538 50.222 141.538 47.3099V36.7811V36.7763ZM143.819 46.6659C143.819 48.1364 143.901 49.0206 144.374 49.6886C144.986 50.5487 146.043 50.8227 147.793 50.8227C153.191 50.8227 155.607 47.3051 155.607 42.1488C155.607 39.1021 154.131 33.9458 146.848 33.9458C145.208 33.9458 144.316 34.1669 144.094 34.3351C143.872 34.5033 143.814 35.1953 143.814 36.4399V46.6659H143.819Z" fill="#004B8D"/>
</g>
<g id="Group_2">
<path id="Vector_6" d="M70.6407 0.0288315H70.0956V51.3753H70.6407V0.0288315Z" fill="#FDB913"/>
<g id="Group_3">
<path id="Vector_7" d="M8.73906 34.4264C8.73906 33.4893 8.67153 33.2394 8.03486 33.1914L7.59112 33.1626C7.51877 33.1049 7.53807 32.8502 7.60559 32.8454C8.36767 32.7781 9.32749 32.7445 10.6394 32.7445C11.5269 32.7445 12.3758 32.807 13.0125 33.1001C13.6202 33.3644 14.088 33.8738 14.088 34.6811C14.088 35.5941 13.4948 36.0651 12.6459 36.4207C12.6459 36.5456 12.7568 36.5841 12.916 36.6081C13.6781 36.7378 14.8067 37.3673 14.8067 38.7225C14.8067 40.193 13.5912 41.1829 11.0494 41.1829C10.6394 41.1829 9.94969 41.1444 9.35643 41.1444C8.76317 41.1444 8.25673 41.1685 7.731 41.1829C7.64418 41.1444 7.62006 40.9426 7.70206 40.8657L7.95769 40.8273C8.70529 40.712 8.73423 40.5726 8.73423 39.2415V34.4264H8.73906ZM9.89664 36.1131C9.89664 36.4687 9.91111 36.4927 10.6298 36.4687C12.0719 36.4159 12.8485 36.0362 12.8485 34.8445C12.8485 33.6527 11.8163 33.1337 10.7455 33.1337C10.4368 33.1337 10.2246 33.1626 10.0944 33.2106C9.95452 33.2491 9.89664 33.3115 9.89664 33.5422V36.1131ZM9.89664 39.0541C9.89664 39.5106 9.92558 40.1545 10.1909 40.438C10.461 40.7312 10.8854 40.7936 11.305 40.7936C12.5591 40.7936 13.5237 40.2843 13.5237 39.0204C13.5237 38.0161 12.9594 36.8532 10.7118 36.8532C9.94969 36.8532 9.89181 36.93 9.89181 37.1847V39.0589L9.89664 39.0541Z" fill="#004B8D"/>
<path id="Vector_8" d="M24.6268 35.6758C24.6268 34.5273 24.6027 34.3447 23.8889 34.2918L23.5898 34.2678C23.5175 34.2246 23.5416 34.0275 23.614 33.9987C24.2169 34.0179 24.6268 34.0323 25.1333 34.0323C25.6397 34.0323 26.0256 34.0227 26.6285 33.9987C26.7008 34.0323 26.725 34.2246 26.6526 34.2678L26.3487 34.2918C25.6349 34.3447 25.6156 34.5273 25.6156 35.6758V39.5298C25.6156 40.6783 25.6397 40.8321 26.3487 40.9042L26.6526 40.9378C26.725 40.9811 26.7008 41.1733 26.6285 41.2069C26.0256 41.1877 25.6156 41.1733 25.1333 41.1733C24.651 41.1733 24.2169 41.1829 23.614 41.2069C23.5416 41.1733 23.5175 41.0003 23.5898 40.9378L23.8889 40.9042C24.6027 40.8273 24.6268 40.6735 24.6268 39.5298V35.6758Z" fill="#004B8D"/>
<path id="Vector_9" d="M31.3167 39.549C31.3167 40.6879 31.3408 40.8465 31.9968 40.9042L32.3585 40.9378C32.426 40.9811 32.4019 41.1733 32.3344 41.2069C31.6881 41.1877 31.307 41.1733 30.8537 41.1733C30.4003 41.1733 30.0048 41.1829 29.2813 41.2069C29.2138 41.1733 29.1896 40.9907 29.2813 40.9378L29.6864 40.9042C30.3327 40.8465 30.3858 40.6879 30.3858 39.549V34.7099C30.3858 34.3735 30.3858 34.3639 30.0482 34.3639H29.426C28.9388 34.3639 28.3215 34.3831 28.0369 34.633C27.7668 34.8685 27.6558 35.1088 27.5304 35.3779C27.4388 35.4452 27.2796 35.3875 27.2362 35.301C27.4195 34.8156 27.5883 34.1236 27.6655 33.6864C27.6993 33.6671 27.8488 33.6527 27.8825 33.6864C27.9501 34.0323 28.3215 34.0227 28.8424 34.0227H33.4196C34.0322 34.0227 34.1335 33.9987 34.3023 33.72C34.3602 33.7008 34.4856 33.7104 34.5049 33.7536C34.3795 34.1957 34.3023 35.0751 34.336 35.3971C34.2926 35.4836 34.0997 35.4836 34.0418 35.4211C34.0081 35.152 33.9309 34.7484 33.7573 34.633C33.4968 34.4456 33.0675 34.3639 32.4453 34.3639H31.6447C31.307 34.3639 31.3167 34.3735 31.3167 34.7339V39.549Z" fill="#004B8D"/>
<path id="Vector_10" d="M36.1592 35.6758C36.1592 34.5273 36.1351 34.3447 35.4261 34.2918L35.1222 34.2678C35.0499 34.2246 35.074 34.0275 35.1464 33.9987C35.7493 34.0179 36.1592 34.0323 36.6657 34.0323C37.1721 34.0323 37.558 34.0227 38.1609 33.9987C38.2332 34.0323 38.2573 34.2246 38.185 34.2678L37.8811 34.2918C37.1673 34.3447 37.148 34.5273 37.148 35.6758V39.5298C37.148 40.6783 37.1721 40.8321 37.8811 40.9042L38.185 40.9378C38.2573 40.9811 38.2332 41.1733 38.1609 41.2069C37.558 41.1877 37.148 41.1733 36.6657 41.1733C36.1592 41.1733 35.7493 41.1829 35.1464 41.2069C35.074 41.1733 35.0499 41.0003 35.1222 40.9378L35.4261 40.9042C36.1399 40.8273 36.1592 40.6735 36.1592 39.5298V35.6758Z" fill="#004B8D"/>
<path id="Vector_11" d="M41.5661 41.3174C40.4905 41.3174 39.8104 41.0387 39.5645 40.9186C39.4101 40.6783 39.2413 39.9142 39.2172 39.4049C39.2799 39.328 39.4728 39.3088 39.5259 39.3712C39.7188 39.9239 40.2445 40.9859 41.7301 40.9859C42.8057 40.9859 43.3314 40.39 43.3314 39.7412C43.3314 39.2655 43.2157 38.7321 42.2799 38.2275L41.0597 37.5548C40.4182 37.1992 39.6754 36.5792 39.6754 35.695C39.6754 34.6667 40.6256 33.8305 42.2896 33.8305C42.6851 33.8305 43.1481 33.8978 43.4809 33.9699C43.6497 34.0131 43.8282 34.0323 43.9295 34.0323C44.0452 34.2918 44.161 34.8973 44.161 35.3539C44.108 35.4163 43.9054 35.45 43.8427 35.3875C43.6739 34.8685 43.3314 34.1669 42.1015 34.1669C40.8716 34.1669 40.5773 34.8685 40.5773 35.3683C40.5773 35.9978 41.1899 36.4495 41.6674 36.6994L42.6947 37.2424C43.505 37.6653 44.2961 38.29 44.2961 39.3184C44.2961 40.5101 43.2301 41.3222 41.5661 41.3222V41.3174Z" fill="#004B8D"/>
<path id="Vector_12" d="M48.0196 37.6797C47.4601 37.6797 47.436 37.6989 47.436 38.0257V39.5538C47.436 40.6927 47.4939 40.8417 48.1498 40.909L48.4875 40.9426C48.555 40.9859 48.5357 41.1781 48.4633 41.2117C47.8315 41.1925 47.436 41.1781 46.9778 41.1781C46.4762 41.1781 46.0758 41.2021 45.6224 41.2117C45.5501 41.1781 45.5308 41.0051 45.5983 40.9426L45.7961 40.909C46.452 40.7984 46.4762 40.6927 46.4762 39.5538V35.6566C46.4762 34.5177 46.3942 34.3351 45.7864 34.2918L45.4826 34.2678C45.4102 34.2246 45.4343 34.0275 45.5067 33.9987C46.0807 34.0083 46.4762 34.0323 46.9778 34.0323C47.4312 34.0323 47.8315 34.0227 48.3331 33.9987C48.4006 34.0323 48.4248 34.2246 48.3572 34.2678L48.1354 34.2918C47.4553 34.3543 47.4312 34.5177 47.4312 35.6566V36.9012C47.4312 37.2376 47.4553 37.2472 48.0148 37.2472H51.3573C51.9168 37.2472 51.9409 37.2376 51.9409 36.9012V35.6566C51.9409 34.5177 51.9168 34.3591 51.2271 34.2918L51.0052 34.2678C50.9377 34.2246 50.957 34.0275 51.0293 33.9987C51.5695 34.0179 51.965 34.0323 52.4425 34.0323C52.92 34.0323 53.2962 34.0227 53.822 33.9987C53.8943 34.0323 53.9136 34.2246 53.8461 34.2678L53.6001 34.2918C52.92 34.3543 52.9007 34.5177 52.9007 35.6566V39.5538C52.9007 40.6927 52.9248 40.8321 53.6001 40.909L53.8799 40.9426C53.9474 40.9859 53.9281 41.1781 53.8557 41.2117C53.2962 41.1925 52.8959 41.1781 52.4425 41.1781C51.965 41.1781 51.5406 41.1877 51.0293 41.2117C50.957 41.1781 50.9377 41.0051 51.0052 40.9426L51.2271 40.909C51.9409 40.7984 51.9409 40.6927 51.9409 39.5538V38.0257C51.9409 37.6989 51.9168 37.6797 51.3573 37.6797H48.0148H48.0196Z" fill="#004B8D"/>
<path id="Vector_13" d="M2.04915 43.5856C3.00898 42.8408 4.23409 42.4756 5.60389 42.4756C6.31291 42.4756 7.31614 42.6197 7.93352 42.7879C8.09269 42.8264 8.18433 42.8552 8.30009 42.8408C8.31456 43.1435 8.37726 43.9653 8.48337 44.763C8.41584 44.8543 8.21809 44.8687 8.12645 44.787C7.9287 43.898 7.33544 42.8792 5.42543 42.8792C3.40931 42.8792 1.70188 44.1479 1.70188 46.8533C1.70188 49.5588 3.45272 51.1158 5.61354 51.1158C7.31132 51.1158 8.06375 50.0201 8.36279 49.2465C8.45443 49.1792 8.65218 49.208 8.70524 49.2993C8.6136 49.9817 8.27115 50.8419 8.07339 51.0918C7.91423 51.1158 7.75506 51.1687 7.61036 51.2215C7.32097 51.3272 6.37079 51.5195 5.53154 51.5195C4.34502 51.5195 3.21638 51.284 2.25173 50.6449C1.20026 49.9288 0.38031 48.7371 0.38031 47.0504C0.38031 45.5991 1.0411 44.3593 2.03951 43.5856H2.04915Z" fill="#004B8D"/>
<path id="Vector_14" d="M9.25032 47.8144C9.25032 45.652 10.9626 43.9941 13.3115 43.9941C15.945 43.9941 17.2714 45.8009 17.2714 47.7087C17.2714 49.8952 15.5157 51.4858 13.3115 51.4858C10.7793 51.4858 9.25032 49.7655 9.25032 47.8144ZM16.1283 48.0403C16.1283 46.2527 15.2939 44.3257 13.1137 44.3257C11.9272 44.3257 10.3886 45.0945 10.3886 47.4636C10.3886 49.0639 11.2086 51.1446 13.4562 51.1446C14.826 51.1446 16.1283 50.1691 16.1283 48.0355V48.0403Z" fill="#004B8D"/>
<path id="Vector_15" d="M30.1398 46.8822C30.1398 46.2094 30.1157 44.9648 29.918 44.6428C29.836 44.5131 29.6286 44.4362 29.344 44.417L29.0546 44.3977C28.9871 44.3209 29.0064 44.1815 29.0787 44.1382C29.5176 44.1575 29.9421 44.1719 30.3906 44.1719C30.873 44.1719 31.1865 44.1623 31.6013 44.1382C31.6929 44.1911 31.6833 44.3305 31.6254 44.3977L31.3505 44.417C31.0611 44.4362 30.844 44.5371 30.7765 44.6765C30.6125 45.0321 30.6125 46.2767 30.6125 46.8822V48.1076C30.6125 49.0494 30.4533 50.0442 29.807 50.6929C29.3102 51.2023 28.4613 51.481 27.6076 51.481C26.8118 51.481 26.0159 51.3417 25.4516 50.8851C24.8391 50.4094 24.5545 49.6213 24.5545 48.3334V45.7769C24.5545 44.6524 24.5304 44.465 23.8648 44.4122L23.5754 44.3929C23.5079 44.3497 23.5271 44.1671 23.5995 44.1334C24.1783 44.1527 24.569 44.1671 25.0272 44.1671C25.4854 44.1671 25.8809 44.1575 26.4452 44.1334C26.5127 44.1671 26.5369 44.3497 26.4693 44.3929L26.1944 44.4122C25.524 44.465 25.5047 44.6524 25.5047 45.7769V48.1172C25.5047 49.8568 26.0835 51.0053 27.844 51.0053C29.5128 51.0053 30.1495 49.7703 30.1495 48.1268V46.8822H30.1398Z" fill="#004B8D"/>
<path id="Vector_16" d="M43.5292 45.5318C43.5292 44.7245 43.4761 44.5131 42.907 44.4698L42.497 44.4314C42.4487 44.3881 42.4246 44.1719 42.5114 44.1623C43.2012 44.1094 44.0645 44.0758 45.2462 44.0758C46.0469 44.0758 46.8138 44.1286 47.3829 44.3833C47.9328 44.614 48.3524 45.0513 48.3524 45.7529C48.3524 46.541 47.817 46.9446 47.0549 47.2522C47.0549 47.3627 47.1562 47.3964 47.2961 47.4156C47.9858 47.5261 49.0035 48.0739 49.0035 49.2417C49.0035 50.5103 47.9087 51.3609 45.6176 51.3609C45.2462 51.3609 44.624 51.3272 44.0887 51.3272C43.5533 51.3272 43.0951 51.3513 42.6224 51.3609C42.5452 51.3272 42.5211 51.1542 42.5983 51.087L42.8298 51.0533C43.505 50.9524 43.5292 50.8323 43.5292 49.6886V45.5318ZM44.571 46.9831C44.571 47.2906 44.5854 47.3099 45.2318 47.2906C46.5292 47.2474 47.2286 46.9206 47.2286 45.8922C47.2286 44.8639 46.2977 44.417 45.333 44.417C45.0533 44.417 44.8604 44.441 44.7494 44.4842C44.624 44.5179 44.571 44.5707 44.571 44.7678V46.9879V46.9831ZM44.571 49.5204C44.571 49.9144 44.5951 50.4719 44.8363 50.7121C45.0774 50.962 45.4585 51.0197 45.8443 51.0197C46.9778 51.0197 47.8411 50.5824 47.8411 49.4867C47.8411 48.6218 47.3299 47.6174 45.3089 47.6174C44.624 47.6174 44.571 47.6847 44.571 47.9009V49.5204Z" fill="#004B8D"/>
<path id="Vector_17" d="M22.7844 40.9378L22.4805 40.9138C22.4178 40.909 22.3647 40.8994 22.3165 40.8898C21.8728 40.8129 21.6991 40.4188 21.4917 40.0584L20.4499 38.2467C20.2715 37.944 20.0785 37.5403 19.6637 37.4827C20.7345 37.3529 21.6991 36.7426 21.6991 35.6854C21.6991 34.4648 20.4885 33.9218 19.2634 33.9218C18.5303 33.9218 17.8598 33.941 17.1122 33.941C16.7023 33.941 16.2103 33.9218 15.8003 33.9218C15.5736 33.9218 15.5688 33.9699 15.5688 34.0948C15.5688 34.2822 15.6508 34.2294 15.8919 34.2438C16.765 34.2918 16.7312 34.4552 16.7312 35.1953V39.9383C16.7312 40.6158 16.7891 40.8177 16.0752 40.8849C16.0752 40.8849 15.9643 40.8946 15.9016 40.9042L15.5977 40.933C15.5254 40.9955 15.5495 41.1733 15.6218 41.2021C15.781 41.1973 16.0704 41.1829 16.0704 41.1829C16.4659 41.1733 16.8614 41.1396 17.2569 41.1396C17.6524 41.1396 18.0383 41.1685 18.429 41.1829C18.5689 41.1829 18.7136 41.1925 18.8775 41.1973C18.9499 41.1637 18.974 40.9907 18.9017 40.9282L18.5978 40.8994C18.5351 40.8898 18.429 40.8849 18.429 40.8849C17.7055 40.8369 17.7489 40.6351 17.7489 39.9383V38.1506C17.7489 38.0449 17.7344 37.7662 17.8116 37.6845C17.8743 37.6172 17.9901 37.6268 18.0962 37.6268C19.0753 37.6268 19.0608 37.7229 19.5239 38.5303L20.7875 40.7936C20.8888 40.9666 20.966 41.1877 21.2265 41.1877H22.3213C22.4612 41.1877 22.6059 41.1973 22.7651 41.2021C22.8374 41.1685 22.8615 40.9955 22.7892 40.933L22.7844 40.9378ZM18.3856 37.3818C18.1685 37.3818 17.7296 37.4635 17.7296 37.1751V35.0992C17.7296 34.287 17.7537 34.1717 18.7328 34.1717C19.8808 34.1717 20.585 34.7532 20.585 35.82C20.585 36.2861 20.4162 36.7138 19.9917 37.0021C19.5046 37.3385 18.974 37.3866 18.3807 37.3866L18.3856 37.3818Z" fill="#004B8D"/>
<g id="Group_4">
<path id="Vector_18" d="M18.6219 45.8154C18.6219 44.6813 18.5978 44.5083 17.8453 44.4506L17.5463 44.4314C17.474 44.3881 17.4981 44.1911 17.5704 44.1623C18.2409 44.1863 18.646 44.1959 19.1235 44.1959C19.601 44.1959 19.9965 44.1863 20.5946 44.1623C20.667 44.1959 20.6911 44.3881 20.6187 44.4314L20.3293 44.4506C19.6251 44.5035 19.601 44.6765 19.601 45.8154V49.5828C19.601 50.2652 19.6348 50.5487 19.8518 50.7506C19.982 50.8707 20.2087 51.0005 21.1541 51.0005C22.1718 51.0005 22.4226 50.9572 22.6107 50.8611C22.8519 50.7314 23.1606 50.3421 23.4017 49.7895C23.4741 49.7366 23.7008 49.7799 23.7008 49.852C23.7008 49.9721 23.368 51.0725 23.1992 51.3657C22.5914 51.3416 21.4531 51.332 20.2232 51.332H19.1235C18.6219 51.332 18.2409 51.3416 17.5704 51.3657C17.4981 51.332 17.474 51.159 17.5463 51.0966L17.9032 51.0629C18.5978 51.0005 18.6219 50.8467 18.6219 49.7126V45.8154Z" fill="#004B8D"/>
<path id="Vector_19" d="M50.6434 45.8346C50.6434 44.6861 50.6193 44.5035 49.9296 44.4506L49.6354 44.4314C49.563 44.3881 49.5872 44.1911 49.6595 44.1623C50.2479 44.1863 50.6434 44.1959 51.1402 44.1959C51.637 44.1959 52.0084 44.1863 52.5969 44.1623C52.6692 44.1959 52.6885 44.3881 52.621 44.4314L52.3268 44.4506C51.6322 44.5035 51.6129 44.6909 51.6129 45.8346V49.6886C51.6129 50.8371 51.637 50.986 52.3268 51.0629L52.621 51.0966C52.6933 51.1398 52.6692 51.332 52.5969 51.3657C52.0084 51.3416 51.6129 51.332 51.1402 51.332C50.6483 51.332 50.2479 51.3416 49.6595 51.3657C49.5872 51.332 49.5679 51.159 49.6354 51.0966L49.9296 51.0629C50.6193 50.986 50.6434 50.8371 50.6434 49.6886V45.8346Z" fill="#004B8D"/>
<path id="Vector_20" d="M41.267 51.0629C41.2092 51.0581 41.0934 51.0485 41.0934 51.0485C40.968 51.0389 40.8571 51.0197 40.7703 50.9236C40.6159 50.765 40.6304 50.3037 40.6304 50.1211V45.3781C40.6304 45.1714 40.5773 44.7245 40.7317 44.5611C40.8088 44.4746 40.968 44.4602 41.1079 44.4554C41.1947 44.4506 41.1947 44.4506 41.2719 44.4458L41.5709 44.4218C41.6433 44.3785 41.6191 44.1815 41.5468 44.1527C41.3876 44.1575 41.2381 44.1527 41.0982 44.1623H39.8152C39.6754 44.1623 39.55 44.1623 39.4728 44.3112L36.8586 49.7318L34.5531 44.4939C34.4759 44.3112 34.4614 44.1623 34.2251 44.1623H32.8891C32.7492 44.1623 32.5948 44.1623 32.4357 44.1527C32.3633 44.1863 32.3392 44.3785 32.4116 44.4218L32.7154 44.4458C32.7781 44.4458 32.8891 44.4602 32.8891 44.4602C33.3907 44.4939 33.4196 44.6044 33.3762 45.1282L32.9855 50.2172C32.9518 50.7266 32.9228 50.9957 32.3874 51.0485C32.3874 51.0485 32.2717 51.0629 32.2138 51.0677L31.9099 51.1014C31.8376 51.1687 31.8617 51.3417 31.9341 51.3753C32.0932 51.3705 32.3778 51.3609 32.3778 51.3609C32.6479 51.3465 32.9276 51.3224 33.2026 51.3224C33.5016 51.3224 33.8007 51.3513 34.0997 51.3609C34.2396 51.3609 34.3843 51.3705 34.5483 51.3753C34.6206 51.3417 34.6447 51.1687 34.5724 51.1062L34.2685 51.0725C34.1913 51.0677 34.0997 51.0581 34.0997 51.0581C33.3232 51.0053 33.3424 50.4623 33.3907 49.7943L33.7572 45.0609H33.8441L36.3425 50.8851C36.3666 50.9668 36.4052 51.1014 36.5306 51.1014C36.6464 51.1014 36.685 50.9764 36.7187 50.8947L39.5355 44.9215H39.6223V50.1259C39.6223 50.3325 39.6464 50.7554 39.4342 50.9188C39.3233 51.0005 38.9567 51.0533 38.9567 51.0533C38.9085 51.0629 38.8554 51.0677 38.7927 51.0774L38.4889 51.111C38.4165 51.1735 38.4406 51.3465 38.513 51.3801C38.6721 51.3753 38.9519 51.3657 38.9519 51.3657C39.3619 51.3561 39.7767 51.3224 40.1915 51.3224C40.4905 51.3224 41.0741 51.3513 41.0741 51.3513C41.214 51.3513 41.3732 51.3705 41.5323 51.3753C41.6047 51.3417 41.6288 51.1687 41.5564 51.1062L41.2526 51.0725L41.267 51.0629Z" fill="#004B8D"/>
<path id="Vector_21" d="M60.8639 51.0918L60.8253 51.0581C60.7674 51.0533 60.7096 51.0437 60.6613 51.0389C60.1935 50.9332 60.0102 50.3709 59.8366 49.9673L57.4201 44.2632C57.396 44.1959 57.3478 44.0469 57.2513 44.0469C57.1211 44.0469 57.0825 44.2055 57.0487 44.2968L54.7384 49.9865C54.6564 50.2028 54.4393 50.7265 54.285 50.8851C54.1644 51.0101 54.0101 51.0293 53.8461 51.0485C53.8461 51.0485 53.7158 51.0629 53.6531 51.0677L53.3686 51.0966C53.2962 51.159 53.3203 51.332 53.3927 51.3657C53.5519 51.3609 53.8413 51.3465 53.8413 51.3465C54.1596 51.3465 54.4731 51.3032 54.7914 51.3032C55.0567 51.3032 55.322 51.332 55.5873 51.3416C55.5873 51.3416 55.8718 51.3513 56.0358 51.3561C56.1082 51.3224 56.1323 51.1494 56.0599 51.087L55.7561 51.0533C55.6982 51.0485 55.5921 51.0389 55.5921 51.0389C55.3123 51.0101 54.9651 50.9572 54.9651 50.6545C54.9651 50.4478 55.0615 50.2124 55.1339 50.0298L55.4908 49.1792C55.6693 48.7707 55.5969 48.7227 56.0792 48.7227H57.7095C58.2835 48.7227 58.2015 48.7227 58.4523 49.3041L58.8333 50.1691C58.8912 50.3181 59.0021 50.568 59.0021 50.7265C59.0021 51.0101 58.6886 51.0293 58.3992 51.0533C58.3992 51.0533 58.3028 51.0629 58.2159 51.0677L57.9265 51.087C57.8542 51.1494 57.8783 51.3224 57.9507 51.3561C58.1098 51.3513 58.3992 51.3368 58.3992 51.3368C58.7417 51.3224 59.0841 51.2984 59.4121 51.2984C59.8317 51.2984 60.2514 51.3272 60.671 51.3368C60.806 51.3368 60.6903 51.3465 60.8543 51.3513C60.9266 51.3176 60.9507 51.1446 60.8784 51.0822L60.8639 51.0918ZM57.695 48.4103H56.2818C56.2336 48.4103 55.8381 48.4584 55.8381 48.343C55.8381 48.3094 55.8622 48.2421 55.8767 48.2085L56.7256 46.1181C56.7497 46.0604 56.8365 45.7721 56.933 45.7721C57.0053 45.7721 57.1018 46.07 57.1307 46.1181L57.9651 48.0691C57.9651 48.0691 58.052 48.2758 58.052 48.3238C58.052 48.4488 57.7674 48.4151 57.695 48.4151V48.4103Z" fill="#004B8D"/>
</g>
</g>
<g id="Group_5">
<path id="Vector_22" d="M53.33 18.0349C50.8991 7.69836 41.5902 0 30.4775 0C19.3647 0 9.7423 7.95786 7.50914 18.5587L12.4674 15.7475L15.1974 17.6553C15.1974 17.6553 16.7939 16.9345 17.1315 16.723L19.1091 18.799C19.1091 18.799 23.3969 22.1869 23.5223 22.1869C23.6477 22.1869 27.3086 20.0725 27.3086 20.0725L30.5884 17.8283L33.4486 19.9043L35.5949 20.3271L37.7799 21.8072C37.7799 21.8072 43.0758 18.2944 43.9198 17.8715C43.9198 17.8715 46.2302 18.7173 46.4424 18.6741C46.6546 18.6308 50.2672 15.8388 50.2672 15.8388L53.3252 18.0445L53.33 18.0349Z" fill="url(#paint0_radial_606_29)"/>
<path id="Vector_23" d="M9.06705 13.7965C9.06705 13.7965 9.08646 13.7533 9.09617 13.7292C9.08646 13.7533 9.07675 13.7725 9.06705 13.7965Z" fill="url(#paint1_radial_606_29)"/>
<path id="Vector_24" d="M9.31786 13.2535C9.31786 13.2535 9.32756 13.2295 9.33727 13.215C9.33242 13.2247 9.32756 13.2391 9.31786 13.2535Z" fill="url(#paint2_radial_606_29)"/>
<path id="Vector_25" d="M9.09599 13.7292C9.16834 13.5706 9.24551 13.4121 9.31786 13.2535C9.24069 13.4121 9.16834 13.5706 9.09599 13.7292Z" fill="url(#paint3_radial_606_29)"/>
<path id="Vector_26" d="M30.7042 11.413C30.9308 11.413 31.1672 11.4178 31.3891 11.4322L32.2235 0.0624711C31.6447 0.0192219 31.0659 0 30.4775 0C30.0964 0 29.7202 0.00961094 29.344 0.0288328L29.8987 11.4418C30.1639 11.4226 30.434 11.413 30.7042 11.413Z" fill="url(#paint4_radial_606_29)"/>
<path id="Vector_27" d="M26.8118 12.0617L23.286 1.11967C22.3696 1.41281 21.4724 1.76361 20.6091 2.16246L25.4565 12.6192C25.8905 12.4077 26.3488 12.2203 26.8118 12.0665V12.0617Z" fill="url(#paint5_radial_606_29)"/>
<path id="Vector_28" d="M22.9194 14.2867L15.482 5.39655C14.744 6.01165 14.0398 6.67 13.379 7.36679L21.8583 15.3102C22.1863 14.9498 22.548 14.6038 22.9146 14.2867H22.9194Z" fill="url(#paint6_radial_606_29)"/>
<path id="Vector_29" d="M20.1605 17.6937L9.86289 12.1963C9.47221 12.8931 8.90789 14.0896 8.64261 14.796L19.5673 19.0152C19.7409 18.5635 19.9387 18.1166 20.1605 17.6937Z" fill="url(#paint7_radial_606_29)"/>
<path id="Vector_30" d="M35.8554 12.5759L40.8716 2.41235C40.013 1.98947 39.1255 1.61464 38.2091 1.29748L34.4615 12.0089C34.9341 12.1675 35.4116 12.3597 35.8554 12.5711V12.5759Z" fill="url(#paint8_radial_606_29)"/>
<path id="Vector_31" d="M39.4632 15.2285L47.899 7.71759C47.2624 7.01118 46.5775 6.34803 45.8588 5.72332L38.3972 14.205C38.7734 14.5221 39.1304 14.8681 39.4632 15.2285Z" fill="url(#paint9_radial_606_29)"/>
<path id="Vector_32" d="M41.87 19.0873L52.4956 15.2814C52.1628 14.3876 51.7817 13.5226 51.3477 12.6816L41.2671 17.7466C41.4938 18.1791 41.6963 18.6212 41.87 19.0825V19.0873Z" fill="url(#paint10_radial_606_29)"/>
<path id="Vector_33" d="M27.3086 20.0628L30.5884 17.8187L33.4486 19.8946L35.5949 20.3175L37.7798 21.7976C37.7798 21.7976 40.1625 20.2166 41.9857 19.0489C41.6722 18.2223 41.2671 17.4391 40.7847 16.7134L48.6997 10.6105L40.2831 16.0166C39.5259 15.0363 38.6239 14.1713 37.6014 13.4601L42.5645 4.98327L36.8924 12.9988C35.8361 12.3693 34.6737 11.8935 33.4341 11.6052L34.857 1.85011L32.5997 11.4466C31.9823 11.3505 31.3456 11.2977 30.6993 11.2977C30.0096 11.2977 29.3343 11.3553 28.6784 11.4659L26.4163 1.85011L27.8391 11.6388C26.614 11.9368 25.4613 12.4173 24.4146 13.0517L18.7039 4.98327L23.7008 13.5226C22.6975 14.2338 21.8101 15.094 21.0673 16.0695L12.5687 10.6105L20.5657 16.7807C20.1075 17.4871 19.7168 18.2464 19.4129 19.0441C20.4017 19.8226 23.4114 22.1869 23.5127 22.1869C23.6381 22.1869 27.2989 20.0725 27.2989 20.0725L27.3086 20.0628Z" fill="url(#paint11_radial_606_29)"/>
<path id="Vector_34" d="M53.2866 17.8764L50.2672 15.6995C50.2672 15.6995 46.6498 18.4915 46.4424 18.5347C46.235 18.578 43.9198 17.7322 43.9198 17.7322C43.0758 18.1551 37.7799 21.6679 37.7799 21.6679L35.5949 20.1878L33.4486 19.7649L30.5884 17.6889L27.3086 19.9331C27.3086 19.9331 23.6477 22.0523 23.5223 22.0523C23.3969 22.0523 19.1091 18.6644 19.1091 18.6644L17.1315 16.5885C16.7939 16.7999 15.1974 17.5207 15.1974 17.5207L12.4674 15.613L7.5429 18.405C7.19563 20.0052 7.01234 21.6679 7.01234 23.3738C7.01234 24.8683 7.15704 26.3292 7.42232 27.7468C9.48185 27.372 13.244 26.8434 16.355 27.2326C20.8985 27.8045 23.7346 28.5685 28.5289 29.6449C33.3232 30.7262 36.8538 31.7401 42.0243 31.1683C46.8669 30.6349 50.383 29.6546 53.6049 27.3431C53.8268 26.0505 53.9426 24.729 53.9426 23.3738C53.9426 21.4756 53.7159 19.6352 53.2866 17.8715V17.8764Z" fill="#004B8D"/>
</g>
</g>
</g>
</g>
</g>
</g>
</g>
</g>
</g>
</g>
<defs>
<radialGradient id="paint0_radial_606_29" cx="0" cy="0" r="1" gradientUnits="userSpaceOnUse" gradientTransform="translate(30.4196 22.1148) scale(22.9104 22.826)">
<stop stop-color="white"/>
<stop offset="0.13" stop-color="#FFFDFB"/>
<stop offset="0.24" stop-color="#FFFAF0"/>
<stop offset="0.34" stop-color="#FFF3DE"/>
<stop offset="0.45" stop-color="#FFEBC5"/>
<stop offset="0.55" stop-color="#FFE0A5"/>
<stop offset="0.6" stop-color="#FFD990"/>
<stop offset="0.62" stop-color="#FED580"/>
<stop offset="0.66" stop-color="#FECC5F"/>
<stop offset="0.71" stop-color="#FDC543"/>
<stop offset="0.77" stop-color="#FDBF2D"/>
<stop offset="0.83" stop-color="#FDBB1E"/>
<stop offset="0.9" stop-color="#FDB915"/>
<stop offset="1" stop-color="#FDB913"/>
</radialGradient>
<radialGradient id="paint1_radial_606_29" cx="0" cy="0" r="1" gradientUnits="userSpaceOnUse" gradientTransform="translate(30.0886 23.5275) scale(33.7432 33.4075)">
<stop offset="0.53" stop-color="white"/>
<stop offset="0.6" stop-color="#FFF7E8"/>
<stop offset="0.74" stop-color="#FFE3AF"/>
<stop offset="0.77" stop-color="#FFDFA4"/>
<stop offset="0.8" stop-color="#FFD991"/>
<stop offset="0.87" stop-color="#FFCA61"/>
<stop offset="0.88" stop-color="#FFC85A"/>
<stop offset="0.91" stop-color="#FEC44B"/>
<stop offset="0.97" stop-color="#FEBF32"/>
<stop offset="1" stop-color="#FEBD2A"/>
</radialGradient>
<radialGradient id="paint2_radial_606_29" cx="0" cy="0" r="1" gradientUnits="userSpaceOnUse" gradientTransform="translate(31.0622 23.4267) scale(34.9657 34.6186)">
<stop offset="0.53" stop-color="white"/>
<stop offset="0.6" stop-color="#FFF7E8"/>
<stop offset="0.74" stop-color="#FFE3AF"/>
<stop offset="0.77" stop-color="#FFDFA4"/>
<stop offset="0.8" stop-color="#FFD991"/>
<stop offset="0.87" stop-color="#FFCA61"/>
<stop offset="0.88" stop-color="#FFC85A"/>
<stop offset="0.91" stop-color="#FEC44B"/>
<stop offset="0.97" stop-color="#FEBF32"/>
<stop offset="1" stop-color="#FEBD2A"/>
</radialGradient>
<radialGradient id="paint3_radial_606_29" cx="0" cy="0" r="1" gradientUnits="userSpaceOnUse" gradientTransform="translate(31.3198 24.4819) rotate(-65.9212) scale(35.1541 38.7263)">
<stop offset="0.53" stop-color="white"/>
<stop offset="0.6" stop-color="#FFF7E8"/>
<stop offset="0.74" stop-color="#FFE3AF"/>
<stop offset="0.77" stop-color="#FFDFA4"/>
<stop offset="0.8" stop-color="#FFD991"/>
<stop offset="0.87" stop-color="#FFCA61"/>
<stop offset="0.88" stop-color="#FFC85A"/>
<stop offset="0.91" stop-color="#FEC44B"/>
<stop offset="0.97" stop-color="#FEBF32"/>
<stop offset="1" stop-color="#FEBD2A"/>
</radialGradient>
<radialGradient id="paint4_radial_606_29" cx="0" cy="0" r="1" gradientUnits="userSpaceOnUse" gradientTransform="translate(30.472 23.3738) scale(21.362 23.3882)">
<stop offset="0.53" stop-color="white"/>
<stop offset="0.6" stop-color="#FFF7E8"/>
<stop offset="0.74" stop-color="#FFE3AF"/>
<stop offset="0.77" stop-color="#FFDFA4"/>
<stop offset="0.8" stop-color="#FFD991"/>
<stop offset="0.87" stop-color="#FFCA61"/>
<stop offset="0.88" stop-color="#FFC85A"/>
<stop offset="0.91" stop-color="#FEC44B"/>
<stop offset="0.97" stop-color="#FEBF32"/>
<stop offset="1" stop-color="#FEBD2A"/>
</radialGradient>
<radialGradient id="paint5_radial_606_29" cx="0" cy="0" r="1" gradientUnits="userSpaceOnUse" gradientTransform="translate(30.4819 23.3781) rotate(-21.9266) scale(21.3817 23.434)">
<stop offset="0.53" stop-color="white"/>
<stop offset="0.6" stop-color="#FFF7E8"/>
<stop offset="0.74" stop-color="#FFE3AF"/>
<stop offset="0.77" stop-color="#FFDFA4"/>
<stop offset="0.8" stop-color="#FFD991"/>
<stop offset="0.87" stop-color="#FFCA61"/>
<stop offset="0.88" stop-color="#FFC85A"/>
<stop offset="0.91" stop-color="#FEC44B"/>
<stop offset="0.97" stop-color="#FEBF32"/>
<stop offset="1" stop-color="#FEBD2A"/>
</radialGradient>
<radialGradient id="paint6_radial_606_29" cx="0" cy="0" r="1" gradientUnits="userSpaceOnUse" gradientTransform="translate(30.3273 23.5254) rotate(-43.8943) scale(21.3591 23.4684)">
<stop offset="0.53" stop-color="white"/>
<stop offset="0.6" stop-color="#FFF7E8"/>
<stop offset="0.74" stop-color="#FFE3AF"/>
<stop offset="0.77" stop-color="#FFDFA4"/>
<stop offset="0.8" stop-color="#FFD991"/>
<stop offset="0.87" stop-color="#FFCA61"/>
<stop offset="0.88" stop-color="#FFC85A"/>
<stop offset="0.91" stop-color="#FEC44B"/>
<stop offset="0.97" stop-color="#FEBF32"/>
<stop offset="1" stop-color="#FEBD2A"/>
</radialGradient>
<radialGradient id="paint7_radial_606_29" cx="0" cy="0" r="1" gradientUnits="userSpaceOnUse" gradientTransform="translate(30.4871 23.3738) scale(23.494 23.4075)">
<stop offset="0.53" stop-color="white"/>
<stop offset="0.6" stop-color="#FFF7E8"/>
<stop offset="0.74" stop-color="#FFE3AF"/>
<stop offset="0.77" stop-color="#FFDFA4"/>
<stop offset="0.8" stop-color="#FFD991"/>
<stop offset="0.87" stop-color="#FFCA61"/>
<stop offset="0.88" stop-color="#FFC85A"/>
<stop offset="0.91" stop-color="#FEC44B"/>
<stop offset="0.97" stop-color="#FEBF32"/>
<stop offset="1" stop-color="#FEBD2A"/>
</radialGradient>
<radialGradient id="paint8_radial_606_29" cx="0" cy="0" r="1" gradientUnits="userSpaceOnUse" gradientTransform="translate(30.2218 23.2592) rotate(21.9266) scale(21.3642 23.4147)">
<stop offset="0.53" stop-color="white"/>
<stop offset="0.6" stop-color="#FFF7E8"/>
<stop offset="0.74" stop-color="#FFE3AF"/>
<stop offset="0.77" stop-color="#FFDFA4"/>
<stop offset="0.8" stop-color="#FFD991"/>
<stop offset="0.87" stop-color="#FFCA61"/>
<stop offset="0.88" stop-color="#FFC85A"/>
<stop offset="0.91" stop-color="#FEC44B"/>
<stop offset="0.97" stop-color="#FEBF32"/>
<stop offset="1" stop-color="#FEBD2A"/>
</radialGradient>
<radialGradient id="paint9_radial_606_29" cx="0" cy="0" r="1" gradientUnits="userSpaceOnUse" gradientTransform="translate(29.9338 22.8515) rotate(43.8943) scale(21.289 23.3913)">
<stop offset="0.53" stop-color="white"/>
<stop offset="0.6" stop-color="#FFF7E8"/>
<stop offset="0.74" stop-color="#FFE3AF"/>
<stop offset="0.77" stop-color="#FFDFA4"/>
<stop offset="0.8" stop-color="#FFD991"/>
<stop offset="0.87" stop-color="#FFCA61"/>
<stop offset="0.88" stop-color="#FFC85A"/>
<stop offset="0.91" stop-color="#FEC44B"/>
<stop offset="0.97" stop-color="#FEBF32"/>
<stop offset="1" stop-color="#FEBD2A"/>
</radialGradient>
<radialGradient id="paint10_radial_606_29" cx="0" cy="0" r="1" gradientUnits="userSpaceOnUse" gradientTransform="translate(29.9087 22.0881) rotate(65.9213) scale(21.2307 23.3881)">
<stop offset="0.53" stop-color="white"/>
<stop offset="0.6" stop-color="#FFF7E8"/>
<stop offset="0.74" stop-color="#FFE3AF"/>
<stop offset="0.77" stop-color="#FFDFA4"/>
<stop offset="0.8" stop-color="#FFD991"/>
<stop offset="0.87" stop-color="#FFCA61"/>
<stop offset="0.88" stop-color="#FFC85A"/>
<stop offset="0.91" stop-color="#FEC44B"/>
<stop offset="0.97" stop-color="#FEBF32"/>
<stop offset="1" stop-color="#FEBD2A"/>
</radialGradient>
<radialGradient id="paint11_radial_606_29" cx="0" cy="0" r="1" gradientUnits="userSpaceOnUse" gradientTransform="translate(30.4389 23.3834) scale(23.4796 23.393)">
<stop offset="0.72" stop-color="white"/>
<stop offset="0.81" stop-color="#FFF8EC"/>
<stop offset="0.99" stop-color="#FFE7BC"/>
<stop offset="1" stop-color="#FFE6B9"/>
</radialGradient>
<clipPath id="clip0_606_29">
<rect width="158" height="52" fill="white" transform="translate(0.390015)"/>
</clipPath>
</defs>
</svg>
